<svg width="24" height="25" viewBox="0 0 24 25" fill="none" xmlns="http://www.w3.org/2000/svg">
<path d="M13.16 13.24L14 14.5H12.5C12.35 17.21 12 19.91 11.5 22.58L10.5 22.42C11 19.8 11.34 17.16 11.5 14.5H10L10.84 13.24C8.64 12.29 7 8.86 7 6.5C7 5.17392 7.52678 3.90215 8.46447 2.96447C9.40215 2.02678 10.6739 1.5 12 1.5C12.6566 1.5 13.3068 1.62933 13.9134 1.8806C14.52 2.13188 15.0712 2.50017 15.5355 2.96447C15.9998 3.42876 16.3681 3.97995 16.6194 4.58658C16.8707 5.19321 17 5.84339 17 6.5C17 8.86 15.36 12.29 13.16 13.24Z" fill="black"/>
</svg>
