<svg width="24" height="24" viewBox="0 0 24 24" fill="none" xmlns="http://www.w3.org/2000/svg">
<path d="M19.4196 7.5V6C19.4196 2.69156 16.3435 0 12.5625 0C8.78143 0 5.70536 2.69156 5.70536 6V7.5H0.5625V20.25C0.5625 22.3211 2.48127 24 4.84821 24H20.2768C22.6437 24 24.5625 22.3211 24.5625 20.25V7.5H19.4196ZM9.13393 6C9.13393 4.34578 10.672 3 12.5625 3C14.453 3 15.9911 4.34578 15.9911 6V7.5H9.13393V6ZM17.7054 11.625C16.9953 11.625 16.4196 11.1213 16.4196 10.5C16.4196 9.87867 16.9953 9.375 17.7054 9.375C18.4154 9.375 18.9911 9.87867 18.9911 10.5C18.9911 11.1213 18.4154 11.625 17.7054 11.625ZM7.41964 11.625C6.70955 11.625 6.13393 11.1213 6.13393 10.5C6.13393 9.87867 6.70955 9.375 7.41964 9.375C8.12973 9.375 8.70536 9.87867 8.70536 10.5C8.70536 11.1213 8.12973 11.625 7.41964 11.625Z" fill="black"/>
</svg>
