<svg width="24" height="22" viewBox="0 0 24 22" fill="none" xmlns="http://www.w3.org/2000/svg">
<path d="M23.5453 8.05C23.7281 7.85625 24 8.0375 24 8.34375V21.125C24 22.7812 22.9922 24.125 21.75 24.125H2.25C1.00781 24.125 0 22.7812 0 21.125V8.35C0 8.0375 0.267187 7.8625 0.454687 8.05625C1.50469 9.14375 2.89688 10.525 7.67813 15.1562C8.66719 16.1187 10.3359 18.1438 12 18.1313C13.6734 18.15 15.375 16.0813 16.3266 15.1562C21.1078 10.525 22.4953 9.1375 23.5453 8.05ZM12 16.125C13.0875 16.15 14.6531 14.3 15.4406 13.5375C21.6609 7.51875 22.1344 6.99375 23.5687 5.49375C23.8406 5.2125 24 4.775 24 4.3125V3.125C24 1.46875 22.9922 0.125 21.75 0.125H2.25C1.00781 0.125 0 1.46875 0 3.125V4.3125C0 4.775 0.159375 5.20625 0.43125 5.49375C1.86563 6.9875 2.33906 7.51875 8.55938 13.5375C9.34688 14.3 10.9125 16.15 12 16.125Z" fill="black"/>
</svg>
