<svg width="24" height="24" viewBox="0 0 24 24" fill="none" xmlns="http://www.w3.org/2000/svg">
<path d="M21.9911 0.5625H3.13393C2.45194 0.5625 1.79789 0.833418 1.31565 1.31565C0.833418 1.79789 0.5625 2.45194 0.5625 3.13393L0.5625 21.9911C0.5625 22.6731 0.833418 23.3271 1.31565 23.8093C1.79789 24.2916 2.45194 24.5625 3.13393 24.5625H10.4866V16.403H7.11161V12.5625H10.4866V9.63536C10.4866 6.30589 12.4688 4.46679 15.5046 4.46679C16.9586 4.46679 18.4789 4.72607 18.4789 4.72607V7.99393H16.8038C15.1532 7.99393 14.6384 9.01821 14.6384 10.0687V12.5625H18.323L17.7338 16.403H14.6384V24.5625H21.9911C22.6731 24.5625 23.3271 24.2916 23.8093 23.8093C24.2916 23.3271 24.5625 22.6731 24.5625 21.9911V3.13393C24.5625 2.45194 24.2916 1.79789 23.8093 1.31565C23.3271 0.833418 22.6731 0.5625 21.9911 0.5625V0.5625Z" fill="black"/>
</svg>
