<svg width="24" height="24" viewBox="0 0 24 24" fill="none" xmlns="http://www.w3.org/2000/svg">
<path d="M12.5615 6.40066C9.15627 6.40066 6.40959 9.14795 6.40959 12.554C6.40959 15.96 9.15627 18.7073 12.5615 18.7073C15.9668 18.7073 18.7134 15.96 18.7134 12.554C18.7134 9.14795 15.9668 6.40066 12.5615 6.40066ZM12.5615 16.5544C10.361 16.5544 8.56196 14.7604 8.56196 12.554C8.56196 10.3476 10.3556 8.55351 12.5615 8.55351C14.7674 8.55351 16.5611 10.3476 16.5611 12.554C16.5611 14.7604 14.7621 16.5544 12.5615 16.5544V16.5544ZM20.4 6.14896C20.4 6.9469 19.7575 7.58419 18.9651 7.58419C18.1673 7.58419 17.5302 6.94155 17.5302 6.14896C17.5302 5.35637 18.1727 4.71372 18.9651 4.71372C19.7575 4.71372 20.4 5.35637 20.4 6.14896ZM24.4745 7.60561C24.3835 5.68304 23.9444 3.98004 22.5363 2.57694C21.1335 1.17384 19.4309 0.734698 17.5088 0.638302C15.5277 0.525839 9.58996 0.525839 7.60892 0.638302C5.69213 0.729343 3.98951 1.16848 2.58137 2.57158C1.17323 3.97468 0.739541 5.67769 0.643166 7.60026C0.530729 9.58174 0.530729 15.5208 0.643166 17.5023C0.734186 19.4249 1.17323 21.1279 2.58137 22.531C3.98951 23.9341 5.68678 24.3732 7.60892 24.4696C9.58996 24.5821 15.5277 24.5821 17.5088 24.4696C19.4309 24.3786 21.1335 23.9394 22.5363 22.531C23.9391 21.1279 24.3781 19.4249 24.4745 17.5023C24.5869 15.5208 24.5869 9.58709 24.4745 7.60561V7.60561ZM21.9152 19.6284C21.4976 20.678 20.6891 21.4867 19.6344 21.9098C18.0549 22.5363 14.307 22.3917 12.5615 22.3917C10.8161 22.3917 7.0628 22.531 5.48868 21.9098C4.43926 21.492 3.63078 20.6834 3.20781 19.6284C2.58137 18.0485 2.72593 14.2998 2.72593 12.554C2.72593 10.8081 2.58672 7.05401 3.20781 5.47954C3.62543 4.42989 4.43391 3.62123 5.48868 3.19816C7.06815 2.57158 10.8161 2.71618 12.5615 2.71618C14.307 2.71618 18.0602 2.57694 19.6344 3.19816C20.6838 3.61588 21.4922 4.42453 21.9152 5.47954C22.5417 7.05937 22.3971 10.8081 22.3971 12.554C22.3971 14.2998 22.5417 18.0539 21.9152 19.6284Z" fill="black"/>
</svg>
