<svg width="24" height="24" viewBox="0 0 24 24" fill="none" xmlns="http://www.w3.org/2000/svg">
<path d="M12.75 0C6.3375 0 0 3.28907 0 8.61217C0 11.9974 2.475 13.9208 3.975 13.9208C4.59375 13.9208 4.95 12.5937 4.95 12.2186C4.95 11.7714 3.46875 10.8193 3.46875 8.95839C3.46875 5.09229 7.29375 2.3514 12.2437 2.3514C16.5 2.3514 19.65 4.21232 19.65 7.63122C19.65 10.1846 18.3188 14.9739 14.0063 14.9739C12.45 14.9739 11.1187 14.1084 11.1187 12.8678C11.1187 11.0501 12.7688 9.29018 12.7688 7.41483C12.7688 4.23155 6.9 4.80858 6.9 8.65545C6.9 9.46329 7.03125 10.3577 7.5 11.0934C6.6375 13.9497 4.875 18.2053 4.875 21.1481C4.875 22.057 5.04375 22.9514 5.15625 23.8602C5.36875 24.0429 5.2625 24.0237 5.5875 23.9323C8.7375 20.6144 8.625 19.9652 10.05 15.6231C10.8188 16.7483 12.8063 17.3542 14.3813 17.3542C21.0188 17.3542 24 12.3773 24 7.89088C24 3.11596 18.6375 0 12.75 0Z" fill="black"/>
</svg>
