<svg width="24" height="24" viewBox="0 0 24 24" fill="none" xmlns="http://www.w3.org/2000/svg">
<path d="M21.4286 0H2.57143C1.15179 0 0 1.15179 0 2.57143V21.4286C0 22.8482 1.15179 24 2.57143 24H21.4286C22.8482 24 24 22.8482 24 21.4286V2.57143C24 1.15179 22.8482 0 21.4286 0ZM21.0804 16.8696C20.8929 17.3036 20.1107 17.6196 18.6804 17.8446C18.6054 17.9464 18.5464 18.3696 18.45 18.6964C18.3911 18.8946 18.2518 19.0125 18.0161 19.0125H18.0054C17.6732 19.0125 17.3196 18.8571 16.6232 18.8571C15.6804 18.8571 15.3536 19.0714 14.6196 19.5911C13.8429 20.1429 13.0982 20.6143 11.9839 20.5661C10.8589 20.6518 9.91607 19.9661 9.38571 19.5911C8.64643 19.0714 8.325 18.8571 7.38214 18.8571C6.7125 18.8571 6.28929 19.0232 6 19.0232C5.71071 19.0232 5.59821 18.8464 5.55536 18.7018C5.45893 18.375 5.4 17.9464 5.325 17.8446C4.58571 17.7321 2.925 17.4429 2.8875 16.6982C2.87679 16.5054 3.01071 16.3339 3.20357 16.3018C5.68393 15.8946 6.79821 13.35 6.84643 13.2429C6.84643 13.2375 6.85179 13.2321 6.85714 13.2268C6.99107 12.9589 7.01786 12.7339 6.94286 12.5571C6.76071 12.1339 5.98393 11.9839 5.65714 11.85C4.81071 11.5179 4.69286 11.1321 4.74643 10.8696C4.83214 10.4143 5.51786 10.1304 5.91964 10.3179C6.23571 10.4679 6.51964 10.5429 6.76071 10.5429C6.9375 10.5429 7.05536 10.5 7.11429 10.4679C7.03929 9.1875 6.8625 7.36071 7.31786 6.3375C8.52321 3.64286 11.0732 3.42857 11.8232 3.42857C11.8554 3.42857 12.15 3.42321 12.1821 3.42321C14.0411 3.42321 15.825 4.37679 16.6982 6.33214C17.1536 7.35536 16.9768 9.17679 16.9018 10.4625C16.9607 10.4946 17.0571 10.5321 17.2071 10.5375C17.4375 10.5268 17.7 10.4518 17.9946 10.3125C18.2089 10.2107 18.5089 10.2268 18.7232 10.3125C19.0607 10.4357 19.275 10.6768 19.2804 10.95C19.2857 11.2982 18.975 11.5982 18.3589 11.8393C18.2839 11.8714 18.1929 11.8982 18.0964 11.9304C17.7482 12.0429 17.2179 12.2089 17.0786 12.5464C17.0036 12.7232 17.0357 12.9482 17.1643 13.2161C17.1696 13.2214 17.1696 13.2268 17.175 13.2321C17.2232 13.3393 18.3375 15.8839 20.8179 16.2911C21.0321 16.3446 21.1982 16.5857 21.0804 16.8696V16.8696Z" fill="black"/>
</svg>
