<svg width="24" height="24" viewBox="0 0 24 24" fill="none" xmlns="http://www.w3.org/2000/svg">
<path d="M21.5331 5.98123C21.5483 6.24372 21.5483 6.50626 21.5483 6.76875C21.5483 14.775 16.5991 24 7.55333 24C4.7665 24 2.17768 23.0062 0 21.2813C0.395955 21.3375 0.776628 21.3563 1.18782 21.3563C3.48728 21.3563 5.60407 20.4 7.29444 18.7688C5.13199 18.7125 3.31979 16.9688 2.69542 14.5687C3.00001 14.625 3.30456 14.6625 3.62439 14.6625C4.066 14.6625 4.50766 14.5874 4.9188 14.4563C2.66499 13.8937 0.974582 11.4562 0.974582 8.51249V8.43752C1.62938 8.88752 2.39087 9.16877 3.19792 9.20622C1.87304 8.1187 1.00505 6.26247 1.00505 4.16246C1.00505 3.03748 1.24866 2.00623 1.67508 1.10622C4.09642 4.78122 7.73605 7.18118 11.8172 7.44372C11.7411 6.99372 11.6954 6.52502 11.6954 6.05626C11.6954 2.71872 13.8883 0 16.6142 0C18.0304 0 19.3096 0.731248 20.2081 1.9125C21.3198 1.65001 22.3858 1.14374 23.33 0.450003C22.9644 1.85628 22.1878 3.03754 21.1675 3.78748C22.1574 3.6563 23.1168 3.31872 24 2.85002C23.3301 4.04997 22.4924 5.11868 21.5331 5.98123V5.98123Z" fill="black"/>
</svg>
